<?xml version="1.0" encoding="utf-8"?>
<!-- Generator: Adobe Illustrator 24.1.0, SVG Export Plug-In . SVG Version: 6.00 Build 0)  -->
<svg version="1.1" id="Layer_1" xmlns="http://www.w3.org/2000/svg" xmlns:xlink="http://www.w3.org/1999/xlink" x="0px" y="0px"
	 viewBox="0 0 394 234" style="enable-background:new 0 0 394 234;" xml:space="preserve">
<style type="text/css">
	.st0{fill:#FFFFFF;}
</style>
<ellipse class="st0" cx="205.13" cy="179.34" rx="2.42" ry="2.52"/>
<g>
	<path class="st0" d="M299.73,66.71c-18.71-37.83-57.71-63.91-102.7-63.91c-45.06,0-84.12,26.17-102.79,64.1L-0.6,46.79v140
		l94.38-20.01c18.49,38.43,57.82,65.01,103.24,65.01c45.34,0,84.62-26.5,103.15-64.82l93.48,19.82v-140L299.73,66.71z M197.03,6.79
		c43.05,0,80.43,24.75,98.66,60.77l-21.43,4.54c-15.56-26.49-44.35-44.31-77.23-44.31c-32.96,0-61.81,17.91-77.34,44.5l-21.41-4.54
		C116.47,31.63,153.9,6.79,197.03,6.79z M196.92,164.77c-7.16,0-14.03-1.55-20.42-4.6l-5.57,11.67
		c-8.29-3.99-15.54-9.79-21.21-16.92l24.92-5.28c6.27,4.2,13.81,6.65,21.9,6.65s15.63-2.45,21.9-6.65l25.77,5.46
		c-5.7,7.09-12.96,12.87-21.25,16.82l-5.61-11.76C210.95,163.23,204.07,164.77,196.92,164.77z M213.53,179.34
		c0,3.28-3.28,5.36-8.39,5.36s-8.39-2.08-8.39-5.36s3.28-5.36,8.39-5.36S213.53,176.06,213.53,179.34z M188.73,173.04v-2.8h5.67v2.8
		H188.73z M194.41,174.3v10.08h-5.67V174.3H194.41z M185.81,180.41v3.97h-5.91v-3.97H185.81z M147.41,142.8
		c-5.89,0.67-11.58,1.33-17.37,1.99c0-19.15,0-38.2,0-57.4c2.37,0.31,4.68,0.6,7,0.91c5.9,0.78,11.8,1.59,17.71,2.35
		c1,0.13,1.6,0.49,2.08,1.47c5.02,10.08,10.11,20.11,15.16,30.17c1.05,2.09,2.02,4.21,2.96,6.17c-0.19-11.61-0.38-23.31-0.58-35.14
		c5.93,0.8,11.61,1.56,17.36,2.33c0,14.01,0,27.95,0,42.08c-1.08,0.13-2.22,0.28-3.36,0.42c-5.44,0.63-10.87,1.25-16.31,1.87
		c-1.81,0.21-3.63,0.36-5.44,0.6c-0.72,0.1-1.07-0.13-1.42-0.76c-6.62-12.03-13.14-24.11-18.2-36.91c-0.07-0.19-0.16-0.37-0.19-0.42
		C147.02,115.81,147.21,129.22,147.41,142.8z M180.43,85.17c4.84-2.47,10.31-3.88,16.1-3.88c5.8,0,11.27,1.4,16.1,3.88l-16.1,3.41
		L180.43,85.17z M212.63,148.42c-4.84,2.47-10.31,3.88-16.1,3.88c-5.79,0-11.26-1.4-16.1-3.88l16.1-3.41L212.63,148.42z
		 M196.53,77.29c-8.1,0-15.63,2.45-21.9,6.65l-24.24-5.14c11.11-13.43,27.89-22.01,46.64-22.01c18.67,0,35.38,8.5,46.49,21.83
		l-25.08,5.32C212.16,79.75,204.63,77.29,196.53,77.29z M243.62,140.08c-5.74,1.3-11.52,1.09-17.31,0.41
		c-6.12-0.72-12.24-1.4-18.36-2.1c-1.52-0.17-3.05-0.35-4.63-0.54c0-14.03,0-28.02,0-42.08c4.2-0.56,8.37-1.14,12.54-1.68
		c5.02-0.64,10.04-1.36,15.08-1.84c5.2-0.5,10.38-0.28,15.43,1.28c8.77,2.71,13.71,8.73,15.06,17.72c0.64,4.29,0.55,8.59-0.54,12.81
		C258.58,133.09,252.45,138.07,243.62,140.08z M247.89,77.7c-11.81-15.14-30.21-24.9-50.86-24.9c-20.73,0-39.19,9.84-51,25.08
		l-22.2-4.71c14.99-24.78,42.19-41.38,73.21-41.38c30.93,0,58.08,16.51,73.1,41.19L247.89,77.7z M145.35,155.85
		c6.22,8.31,14.4,15.08,23.84,19.62l-5.62,11.78c10.46,4.99,21.68,7.52,33.34,7.52c11.66,0,22.88-2.53,33.34-7.52l-5.58-11.69
		c9.45-4.5,17.64-11.24,23.88-19.52l22.08,4.68c-14.9,25.16-42.31,42.08-73.61,42.08c-31.38,0-58.85-17-73.72-42.27L145.35,155.85z
		 M64.86,152.2c-16.8,1.91-33.6,3.82-50.54,5.75c0-0.59,0-0.98,0-1.38c0-6.13-0.02-12.26,0.03-18.38c0.01-0.68,0.24-1.44,0.61-2.01
		c8.73-13.7,17.49-27.38,26.24-41.07c0.21-0.33,0.4-0.68,0.71-1.21c-8.81-0.69-17.48-1.36-26.22-2.04c0-6.65,0-13.16,0-19.85
		c15.99,2.15,31.86,4.28,47.8,6.42c0,4.59-0.17,9.06,0.06,13.51c0.16,3.09-0.75,5.53-2.5,8.05c-8.16,11.74-16.15,23.61-24.2,35.43
		c-0.25,0.36-0.47,0.73-0.88,1.36c9.77-0.55,19.29-1.08,28.91-1.62C64.86,140.86,64.86,146.47,64.86,152.2z M73.03,151.27
		c0-23.85,0-47.66,0-71.56c3.27,0.44,6.51,0.87,9.75,1.3c6.38,0.86,12.77,1.72,19.15,2.57c5.54,0.74,11.09,1.46,16.62,2.23
		c0.28,0.04,0.71,0.47,0.72,0.73c0.04,4.41,0.03,8.83,0.03,13.4c-9.45-0.72-18.76-1.44-28.17-2.15c0,3.32,0,6.54,0,9.93
		c8.38,0.32,16.65,0.66,24.92,0.93c1,0.03,1.32,0.27,1.3,1.29c-0.06,3.81-0.02,7.63-0.02,11.45c0,0.35-0.03,0.71-0.06,1.15
		c-8.74,0.15-17.41,0.3-26.15,0.45c0,3.55,0,6.98,0,10.57c9.56-0.53,19.06-1.06,28.65-1.6c0,4.7,0,9.27,0,13.99
		C104.23,147.72,88.66,149.49,73.03,151.27z M197.03,227.79c-43.49,0-81.18-25.26-99.2-61.87l21.35-4.53
		c15.4,27.08,44.53,45.39,77.85,45.39c33.25,0,62.31-18.22,77.75-45.2l21.36,4.53C278.08,202.63,240.44,227.79,197.03,227.79z
		 M317.42,150.81c-15.56-1.76-31.1-3.53-46.74-5.3c0-0.53,0-0.93,0-1.33c0-18.63,0.01-37.26-0.03-55.89c0-1.18,0.4-1.44,1.49-1.58
		c6.43-0.78,12.86-1.66,19.28-2.51c7.11-0.94,14.22-1.87,21.33-2.81c1.36-0.18,2.72-0.35,4.18-0.54c0,5.44,0,10.78,0,16.29
		c-9.32,0.7-18.68,1.4-28.1,2.11c0,3.09,0,6.12,0,9.3c8.69-0.32,17.38-0.64,26.15-0.96c0,5.29,0,10.42,0,15.77
		c-8.75-0.14-17.42-0.28-26.16-0.42c0,3.32,0,6.55,0,9.92c9.51,0.54,19.01,1.08,28.6,1.63
		C317.42,139.91,317.42,145.29,317.42,150.81z M375.1,157.37c-2.98-0.33-5.95-0.71-8.94-1.01c-0.97-0.1-1.43-0.46-1.68-1.46
		c-1.5-6.01-3.03-12-4.66-17.98c-0.45-1.67-1.16-3.29-1.93-4.84c-1.34-2.7-3.57-4.3-6.62-4.49c-1.81-0.12-3.63-0.02-5.58-0.02
		c0,8.73,0,17.52,0,26.44c-6.05-0.69-11.96-1.35-17.97-2.03c0-24.13,0-48.25,0-72.54c3.65-0.49,7.26-0.97,10.87-1.45
		c5.3-0.7,10.61-1.38,15.91-2.08c3.71-0.49,7.4-0.83,11.13-0.18c6.61,1.15,10.94,4.92,12.83,11.31c1.91,6.49,2.02,13.05-0.11,19.53
		c-1.66,5.05-4.87,8.83-9.76,11.08c-0.21,0.1-0.39,0.23-0.69,0.41c4.16,2.04,6.25,5.67,7.52,9.71c2.18,6.95,4.07,13.98,6.04,21
		c0.88,3.14,1.66,6.32,2.51,9.58C380.96,158.01,378.03,157.7,375.1,157.37z"/>
	<path class="st0" d="M355.61,92.87c-3.26-0.06-6.53,0.25-9.85,0.4c0,6.21,0,12.19,0,18.05c3.14,0,6.15,0.19,9.13-0.05
		c3.47-0.29,5.85-2.23,6.81-5.68c0.66-2.38,0.77-4.81,0.26-7.23C361.24,94.99,359.04,92.94,355.61,92.87z"/>
	<path class="st0" d="M233.43,104.36c-4-0.8-7.99-0.15-12.04,0.11c0,8.15,0,16.21,0,24.45c3.66,0,7.28,0.32,10.83-0.07
		c6.48-0.7,10.01-4.39,10.62-10.83C243.49,111.09,240.65,105.8,233.43,104.36z"/>
</g>
<g>
</g>
<g>
</g>
<g>
</g>
<g>
</g>
<g>
</g>
<g>
</g>
<g>
</g>
<g>
</g>
<g>
</g>
<g>
</g>
<g>
</g>
<g>
</g>
<g>
</g>
<g>
</g>
<g>
</g>
</svg>
